# This file uses centimeters as units for non-parametric coordinates.

mtllib tripple_road.mtl
g default
v 2.916566 -0.067074 4.958283
v 2.916566 0.067074 4.958283
v -0.001632 -0.067074 4.958283
v -0.001632 0.067074 4.958283
v 2.054150 -0.067074 4.958283
v 1.711672 0.067074 4.958283
v 2.916566 0.228629 4.958283
v 1.792441 0.228629 4.958283
v 1.711672 0.147859 4.958283
v 2.916566 0.067074 0.810644
v 2.916566 0.228629 0.810644
v 1.792441 0.228629 0.810644
v 1.711672 0.147859 0.810644
v 1.711672 0.067074 0.810644
v -0.001632 0.067074 0.810644
v -0.001632 -0.067074 0.810644
v 2.054150 -0.067074 0.810644
v 2.916566 -0.067074 0.810644
v 2.916565 0.228629 -0.248880
v 1.792442 0.228630 -0.248880
v 1.711674 0.147861 -0.248881
v 1.711672 0.067074 -0.248880
v 7.064204 0.067074 -4.958283
v 7.064204 -0.067074 -4.958283
v 7.064204 0.067074 -2.041717
v 7.064204 -0.067074 -2.041717
v 7.064204 0.067074 -3.753389
v 7.064204 -0.067074 -4.095867
v 7.064204 0.228629 -4.958283
v 7.064204 0.228629 -3.834158
v 7.064204 0.147860 -3.753389
v 7.064204 0.067074 0.874849
v 7.064204 -0.067074 0.874849
v 7.064204 0.067074 -0.330045
v 7.064204 -0.067074 0.012433
v 7.064204 0.228629 0.874849
v 7.064204 0.228629 -0.249276
v 7.064204 0.147860 -0.330045
v 2.916566 0.067074 -4.958283
v 2.916566 0.228629 -4.958283
v 2.916566 0.228629 -3.834158
v 2.916566 0.147860 -3.753389
v 2.916566 0.067074 -3.753389
v 2.916566 0.067074 -2.041717
v 2.916566 0.067074 -0.330045
v 2.916566 0.147860 -0.330045
v 2.916566 0.228629 -0.249276
v 2.916566 0.228629 0.874849
v 2.916566 0.067074 0.874849
v 2.916566 -0.067074 0.874849
v 2.916566 -0.067074 0.012433
v 2.916566 -0.067074 -2.041717
v 2.916566 -0.067074 -4.095867
v 2.916566 -0.067074 -4.958283
v 1.792443 0.067074 -0.330045
v 1.792443 0.147860 -0.330045
v 1.792443 0.228629 -0.249276
v -0.001632 -0.067074 -4.958283
v -0.001632 0.067074 -4.958283
v -0.001632 0.228629 -4.958283
v -0.001632 0.228629 -3.834158
v -0.001632 0.147860 -3.753389
v -0.001632 0.067074 -3.753389
v 2.916566 -0.067074 -4.894078
v 2.916566 0.067074 -4.894078
v -0.001632 -0.067074 -4.894078
v -0.001632 0.067074 -4.894078
v 2.054150 -0.067074 -4.894078
v 1.711672 0.067074 -4.894078
v -0.001632 -0.067074 0.810644
v -0.001632 0.067074 0.810644
v 2.054150 -0.067074 0.810644
v 1.711672 0.067074 0.810644
v 2.916566 -0.067074 0.810644
v 2.916566 0.067074 0.810644
v -2.919829 -0.067074 4.958283
v -2.919829 0.067074 4.958283
v -2.057413 -0.067074 4.958283
v -1.714936 0.067074 4.958283
v -2.919829 0.228629 4.958283
v -1.795705 0.228629 4.958283
v -1.714936 0.147859 4.958283
v -2.919829 0.067074 0.810644
v -2.919829 0.228629 0.810644
v -1.795705 0.228629 0.810644
v -1.714936 0.147859 0.810644
v -1.714936 0.067074 0.810644
v -2.057413 -0.067074 0.810644
v -2.919829 -0.067074 0.810644
v -2.919829 0.228629 -0.248880
v -1.795706 0.228630 -0.248880
v -1.714937 0.147861 -0.248881
v -1.714936 0.067074 -0.248880
v -7.067468 0.067074 -4.958283
v -7.067468 -0.067074 -4.958283
v -7.067468 0.067074 -2.041717
v -7.067468 -0.067074 -2.041717
v -7.067468 0.067074 -3.753389
v -7.067468 -0.067074 -4.095867
v -7.067468 0.228629 -4.958283
v -7.067468 0.228629 -3.834158
v -7.067468 0.147860 -3.753389
v -7.067468 0.067074 0.874849
v -7.067468 -0.067074 0.874849
v -7.067468 0.067074 -0.330045
v -7.067468 -0.067074 0.012433
v -7.067468 0.228629 0.874849
v -7.067468 0.228629 -0.249276
v -7.067468 0.147860 -0.330045
v -2.919829 0.067074 -4.958283
v -2.919829 0.228629 -4.958283
v -2.919829 0.228629 -3.834158
v -2.919829 0.147860 -3.753389
v -2.919829 0.067074 -3.753389
v -2.919829 0.067074 -2.041717
v -2.919829 0.067074 -0.330045
v -2.919829 0.147860 -0.330045
v -2.919829 0.228629 -0.249276
v -2.919829 0.228629 0.874849
v -2.919829 0.067074 0.874849
v -2.919829 -0.067074 0.874849
v -2.919829 -0.067074 0.012433
v -2.919829 -0.067074 -2.041717
v -2.919829 -0.067074 -4.095867
v -2.919829 -0.067074 -4.958283
v -1.795706 0.067074 -0.330045
v -1.795706 0.147860 -0.330045
v -1.795706 0.228629 -0.249276
v -2.919829 -0.067074 -4.894078
v -2.919829 0.067074 -4.894078
v -2.057413 -0.067074 -4.894078
v -1.714936 0.067074 -4.894078
v -2.057413 -0.067074 0.810644
v -1.714936 0.067074 0.810644
v -2.919829 -0.067074 0.810644
v -2.919829 0.067074 0.810644
v 2.916566 -0.067074 -4.894078
v -0.001632 -0.067074 -4.894078
v -2.919829 -0.067074 -4.894078
vt 0.621922 0.406217
vt 0.500684 0.406217
vt 0.500684 0.699716
vt 0.621922 0.699716
vt 1.000684 0.204375
vt 1.000684 0.083252
vt 0.707184 0.083252
vt 0.707184 0.204375
vt 0.707184 0.325498
vt 1.000684 0.325498
vt 0.621922 0.002533
vt 0.500684 0.002533
vt 0.500684 0.406217
vt 0.621922 0.406217
vt 0.707184 0.002533
vt 0.707184 0.406217
vt 0.379445 0.406217
vt 0.379445 0.699716
vt 0.000684 0.204375
vt 0.294183 0.204375
vt 0.294183 0.083252
vt 0.000684 0.083252
vt 0.000684 0.325498
vt 0.294183 0.325498
vt 0.379445 0.002533
vt 0.379445 0.406217
vt 0.294183 0.002533
vt 0.294183 0.406217
vn 1.000000 -0.000002 0.000000
vn 1.000000 -0.000002 0.000000
vn 1.000000 -0.000001 0.000000
vn 1.000000 -0.000001 0.000000
vn 0.000000 0.000000 1.000000
vn 0.000000 0.000000 1.000000
vn 0.000000 0.000000 1.000000
vn 0.000000 0.000000 1.000000
vn 0.000000 1.000000 0.000000
vn 0.000000 1.000000 0.000000
vn 0.000000 1.000000 0.000000
vn 0.000000 1.000000 0.000000
vn 0.000000 -1.000000 0.000000
vn 0.000000 -1.000000 0.000000
vn 0.000000 -1.000000 0.000000
vn 0.000000 -1.000000 0.000000
vn 0.000000 0.000000 1.000000
vn 0.000000 0.000000 1.000000
vn 0.000000 0.000000 1.000000
vn 0.000000 0.000000 1.000000
vn 0.000000 1.000000 0.000000
vn 0.000000 1.000000 0.000000
vn 0.000000 1.000000 0.000000
vn 0.000000 1.000000 0.000000
vn 0.000000 -1.000000 0.000000
vn 0.000000 -1.000000 0.000000
vn 0.000000 -1.000000 0.000000
vn 0.000000 -1.000000 0.000000
vn -1.000000 0.000002 -0.000000
vn -1.000000 0.000002 -0.000000
vn -1.000000 0.000000 0.000000
vn -1.000000 0.000000 0.000000
vn 0.000000 0.000000 1.000000
vn 0.000000 0.000000 1.000000
vn 0.000000 0.000000 1.000000
vn 0.000000 0.000000 1.000000
vn 0.000000 0.000000 1.000000
vn 1.000000 -0.000001 0.000000
vn 1.000000 -0.000001 0.000000
vn 1.000000 0.000000 0.000000
vn 1.000000 0.000000 0.000000
vn -0.707109 0.707104 0.000000
vn -0.707109 0.707104 0.000000
vn -0.707109 0.707104 0.000000
vn -0.707109 0.707104 0.000000
vn 0.000000 1.000000 0.000000
vn 0.000000 1.000000 0.000000
vn 0.000001 1.000000 0.000001
vn 0.000001 1.000000 0.000001
vn -0.707109 0.707104 0.000000
vn -0.707109 0.707104 0.000000
vn -0.707109 0.707104 0.000000
vn -0.707109 0.707104 0.000000
vn -1.000000 0.000002 -0.000000
vn -1.000000 0.000002 -0.000000
vn -1.000000 0.000010 -0.000001
vn -1.000000 0.000010 -0.000001
vn 1.000000 0.000000 0.000000
vn 1.000000 -0.000003 0.000000
vn 1.000000 -0.000000 0.000000
vn 1.000000 0.000000 0.000000
vn 1.000000 -0.000003 0.000000
vn 1.000000 -0.000003 0.000000
vn 1.000000 -0.000001 0.000000
vn 1.000000 -0.000000 0.000000
vn 1.000000 -0.000001 0.000000
vn 1.000000 0.000000 0.000000
vn 1.000000 0.000000 0.000000
vn 1.000000 0.000000 0.000000
vn 1.000000 -0.000000 0.000000
vn 1.000000 0.000000 0.000000
vn 1.000000 0.000000 0.000000
vn 1.000000 0.000001 0.000000
vn 1.000000 -0.000003 0.000000
vn 1.000000 -0.000003 0.000000
vn 1.000000 0.000001 0.000000
vn 1.000000 0.000000 0.000000
vn 1.000000 -0.000003 0.000000
vn 1.000000 0.000000 0.000000
vn 1.000000 0.000001 0.000000
vn 1.000000 0.000002 0.000000
vn 1.000000 0.000002 0.000000
vn 1.000000 0.000002 0.000000
vn 0.000000 0.000000 -1.000000
vn 0.000000 0.000000 -1.000000
vn 0.000000 0.000000 -1.000000
vn 0.000000 0.000000 -1.000000
vn 0.000000 1.000000 0.000000
vn 0.000000 1.000000 0.000000
vn 0.000000 1.000000 0.000000
vn 0.000000 1.000000 0.000000
vn 0.000000 0.707105 0.707109
vn 0.000000 0.707105 0.707109
vn 0.000000 0.707105 0.707109
vn 0.000000 0.707105 0.707109
vn 0.000000 0.000000 1.000000
vn 0.000000 0.000000 1.000000
vn 0.000000 0.000000 1.000000
vn 0.000000 0.000000 1.000000
vn 0.000000 1.000000 0.000000
vn 0.000000 1.000000 0.000000
vn 0.000000 1.000000 0.000000
vn 0.000000 1.000000 0.000000
vn 0.000000 1.000000 0.000000
vn 0.000000 1.000000 0.000000
vn 0.000000 1.000000 0.000000
vn 0.000000 1.000000 0.000000
vn 0.000000 0.000000 -1.000000
vn 0.000000 0.000000 -1.000000
vn 0.000000 0.000000 -1.000000
vn 0.000000 0.000000 -1.000000
vn -0.000000 0.707105 -0.707109
vn -0.000000 0.707105 -0.707109
vn -0.000000 0.707105 -0.707109
vn -0.000000 0.707105 -0.707109
vn 0.000000 1.000000 0.000000
vn 0.000000 1.000000 0.000000
vn 0.000000 1.000000 0.000000
vn 0.000000 1.000000 0.000000
vn 0.000000 0.000000 1.000000
vn 0.000000 0.000000 1.000000
vn 0.000000 0.000000 1.000000
vn 0.000000 0.000000 1.000000
vn 0.000000 0.000000 1.000000
vn 0.000000 0.000000 1.000000
vn 0.000000 0.000000 1.000000
vn 0.000000 0.000000 1.000000
vn 0.000000 -1.000000 0.000000
vn 0.000000 -1.000000 0.000000
vn 0.000000 -1.000000 0.000000
vn 0.000000 -1.000000 0.000000
vn 0.000000 -1.000000 0.000000
vn 0.000000 -1.000000 0.000000
vn 0.000000 -1.000000 0.000000
vn 0.000000 -1.000000 0.000000
vn 0.000000 -1.000000 0.000000
vn 0.000000 -1.000000 0.000000
vn 0.000000 -1.000000 0.000000
vn 0.000000 -1.000000 0.000000
vn 0.000000 -1.000000 0.000000
vn 0.000000 -1.000000 0.000000
vn 0.000000 -1.000000 0.000000
vn 0.000000 -1.000000 0.000000
vn 0.000000 0.000000 -1.000000
vn 0.000000 0.000000 -1.000000
vn 0.000000 0.000000 -1.000000
vn 0.000000 0.000000 -1.000000
vn 0.000000 0.000000 -1.000000
vn 0.000000 0.000000 -1.000000
vn 0.000000 0.000000 -1.000000
vn 0.000000 0.000000 -1.000000
vn 0.000000 1.000000 0.000000
vn 0.000000 1.000000 0.000000
vn 0.000000 1.000000 0.000000
vn 0.000000 1.000000 0.000000
vn 0.000000 0.707105 0.707109
vn 0.000000 0.707105 0.707109
vn 0.000000 0.707105 0.707109
vn 0.000000 0.707105 0.707109
vn 0.000000 0.000000 1.000000
vn 0.000000 0.000000 1.000000
vn 0.000000 0.000000 1.000000
vn 0.000000 0.000000 1.000000
vn 0.000000 0.000000 -1.000000
vn 0.000000 0.000000 -1.000000
vn 0.000000 0.000000 -1.000000
vn 0.000000 0.000000 -1.000000
vn 0.000000 0.000000 -1.000000
vn 0.000000 0.000000 -1.000000
vn 0.000000 0.000000 -1.000000
vn 0.000000 0.000000 -1.000000
vn 0.000000 0.707105 -0.707108
vn 0.000000 0.707105 -0.707108
vn 0.000000 0.707105 -0.707108
vn 0.000000 0.707105 -0.707108
vn 0.000000 0.000000 1.000000
vn 0.000000 0.000000 1.000000
vn 0.000000 0.000000 1.000000
vn 0.000000 0.000000 1.000000
vn 0.000000 0.000000 1.000000
vn 0.000000 0.000000 1.000000
vn 0.000000 0.000000 1.000000
vn 0.000000 0.000000 1.000000
vn 0.000000 -1.000000 0.000000
vn 0.000000 -1.000000 0.000000
vn 0.000000 -1.000000 0.000000
vn 0.000000 -1.000000 0.000000
vn 0.000000 1.000000 0.000000
vn 0.000000 1.000000 0.000000
vn 0.000000 1.000000 0.000000
vn 0.000000 1.000000 0.000000
vn 0.000000 -1.000000 0.000000
vn 0.000000 -1.000000 0.000000
vn 0.000000 -1.000000 0.000000
vn 0.000000 -1.000000 0.000000
vn 1.000000 0.000000 0.000000
vn 1.000000 0.000000 0.000000
vn 1.000000 0.000000 0.000000
vn 1.000000 0.000000 0.000000
vn 0.000000 1.000000 0.000000
vn 0.000000 1.000000 0.000000
vn 0.000000 1.000000 0.000000
vn 0.000000 1.000000 0.000000
vn -0.708828 0.000006 -0.705381
vn -0.708828 0.000006 -0.705381
vn -0.708828 0.000006 -0.705381
vn -0.708828 0.000006 -0.705381
vn -0.580148 0.577345 -0.574544
vn -0.580148 0.577345 -0.574544
vn -0.580148 0.577345 -0.574544
vn -0.580148 0.577345 -0.574544
vn -1.000000 -0.000003 0.000000
vn -1.000000 -0.000002 0.000000
vn -1.000000 -0.000002 0.000000
vn -1.000000 -0.000003 0.000000
vn 0.000000 0.000000 1.000000
vn 0.000000 0.000000 1.000000
vn 0.000000 0.000000 1.000000
vn 0.000000 0.000000 1.000000
vn 0.000000 1.000000 0.000000
vn 0.000000 1.000000 0.000000
vn 0.000000 1.000000 0.000000
vn 0.000000 1.000000 0.000000
vn 0.000000 -1.000000 0.000000
vn 0.000000 -1.000000 0.000000
vn 0.000000 -1.000000 0.000000
vn 0.000000 -1.000000 0.000000
vn 0.000000 0.000000 1.000000
vn 0.000000 0.000000 1.000000
vn 0.000000 0.000000 1.000000
vn 0.000000 0.000000 1.000000
vn 0.000000 1.000000 0.000000
vn 0.000000 1.000000 0.000000
vn 0.000000 1.000000 0.000000
vn 0.000000 1.000000 0.000000
vn 0.000000 -1.000000 0.000000
vn 0.000000 -1.000000 0.000000
vn 0.000000 -1.000000 0.000000
vn 0.000000 -1.000000 0.000000
vn 1.000000 0.000002 0.000000
vn 1.000000 0.000000 0.000000
vn 1.000000 0.000000 0.000000
vn 1.000000 0.000002 0.000000
vn 0.000000 0.000000 1.000000
vn 0.000000 0.000000 1.000000
vn 0.000000 0.000000 1.000000
vn 0.000000 0.000000 1.000000
vn 0.000000 0.000000 1.000000
vn -1.000000 -0.000002 0.000000
vn -1.000000 0.000000 0.000000
vn -1.000000 0.000000 0.000000
vn -1.000000 -0.000002 0.000000
vn 0.707110 0.707104 0.000000
vn 0.707110 0.707104 0.000000
vn 0.707110 0.707104 0.000000
vn 0.707110 0.707104 0.000000
vn 0.000000 1.000000 0.000000
vn -0.000001 1.000000 0.000001
vn -0.000001 1.000000 0.000001
vn 0.000000 1.000000 0.000000
vn 0.707110 0.707104 0.000000
vn 0.707109 0.707104 0.000000
vn 0.707109 0.707104 0.000000
vn 0.707110 0.707104 0.000000
vn 1.000000 0.000002 0.000000
vn 1.000000 0.000010 -0.000001
vn 1.000000 0.000010 -0.000001
vn 1.000000 0.000002 0.000000
vn -1.000000 0.000000 0.000000
vn -1.000000 0.000000 0.000000
vn -1.000000 0.000001 0.000000
vn -1.000000 0.000000 0.000000
vn -1.000000 0.000000 0.000000
vn -1.000000 0.000001 0.000000
vn -1.000000 0.000001 0.000000
vn -1.000000 0.000000 0.000000
vn -1.000000 0.000001 0.000000
vn -1.000000 0.000001 0.000000
vn -1.000000 0.000002 0.000000
vn -1.000000 0.000002 0.000000
vn -1.000000 0.000002 0.000000
vn -1.000000 0.000000 0.000000
vn -1.000000 0.000000 0.000000
vn -1.000000 0.000000 0.000000
vn -1.000000 0.000000 0.000000
vn -1.000000 0.000000 0.000000
vn -1.000000 0.000000 0.000000
vn -1.000000 0.000000 0.000000
vn -1.000000 0.000000 0.000000
vn -1.000000 0.000000 0.000000
vn -1.000000 0.000000 0.000000
vn -1.000000 0.000000 0.000000
vn -1.000000 0.000000 0.000000
vn -1.000000 0.000000 0.000000
vn 0.000000 0.000000 -1.000000
vn 0.000000 0.000000 -1.000000
vn 0.000000 0.000000 -1.000000
vn 0.000000 0.000000 -1.000000
vn 0.000000 1.000000 0.000000
vn 0.000000 1.000000 0.000000
vn 0.000000 1.000000 0.000000
vn 0.000000 1.000000 0.000000
vn 0.000000 0.707105 0.707109
vn 0.000000 0.707105 0.707109
vn 0.000000 0.707105 0.707109
vn 0.000000 0.707105 0.707109
vn 0.000000 0.000000 1.000000
vn 0.000000 0.000000 1.000000
vn 0.000000 0.000000 1.000000
vn 0.000000 0.000000 1.000000
vn 0.000000 1.000000 0.000000
vn 0.000000 1.000000 0.000000
vn 0.000000 1.000000 0.000000
vn 0.000000 1.000000 0.000000
vn 0.000000 1.000000 0.000000
vn 0.000000 1.000000 0.000000
vn 0.000000 1.000000 0.000000
vn 0.000000 1.000000 0.000000
vn 0.000000 0.000000 -1.000000
vn 0.000000 0.000000 -1.000000
vn 0.000000 0.000000 -1.000000
vn 0.000000 0.000000 -1.000000
vn 0.000000 0.707105 -0.707109
vn 0.000000 0.707105 -0.707109
vn 0.000000 0.707105 -0.707109
vn 0.000000 0.707105 -0.707109
vn 0.000000 1.000000 0.000000
vn 0.000000 1.000000 0.000000
vn 0.000000 1.000000 0.000000
vn 0.000000 1.000000 0.000000
vn 0.000000 0.000000 1.000000
vn 0.000000 0.000000 1.000000
vn 0.000000 0.000000 1.000000
vn 0.000000 0.000000 1.000000
vn 0.000000 0.000000 1.000000
vn 0.000000 0.000000 1.000000
vn 0.000000 0.000000 1.000000
vn 0.000000 0.000000 1.000000
vn 0.000000 -1.000000 0.000000
vn 0.000000 -1.000000 0.000000
vn 0.000000 -1.000000 0.000000
vn 0.000000 -1.000000 0.000000
vn 0.000000 -1.000000 0.000000
vn 0.000000 -1.000000 0.000000
vn 0.000000 -1.000000 0.000000
vn 0.000000 -1.000000 0.000000
vn 0.000000 -1.000000 0.000000
vn 0.000000 -1.000000 0.000000
vn 0.000000 -1.000000 0.000000
vn 0.000000 -1.000000 0.000000
vn 0.000000 -1.000000 0.000000
vn 0.000000 -1.000000 0.000000
vn 0.000000 -1.000000 0.000000
vn 0.000000 -1.000000 0.000000
vn 0.000000 0.000000 -1.000000
vn 0.000000 0.000000 -1.000000
vn 0.000000 0.000000 -1.000000
vn 0.000000 0.000000 -1.000000
vn 0.000000 0.000000 -1.000000
vn 0.000000 0.000000 -1.000000
vn 0.000000 0.000000 -1.000000
vn 0.000000 0.000000 -1.000000
vn 0.000000 1.000000 0.000000
vn 0.000000 1.000000 0.000000
vn 0.000000 1.000000 0.000000
vn 0.000000 1.000000 0.000000
vn 0.000000 0.707105 0.707109
vn 0.000000 0.707105 0.707109
vn 0.000000 0.707105 0.707109
vn 0.000000 0.707105 0.707109
vn 0.000000 0.000000 1.000000
vn 0.000000 0.000000 1.000000
vn 0.000000 0.000000 1.000000
vn 0.000000 0.000000 1.000000
vn 0.000000 0.000000 -1.000000
vn 0.000000 0.000000 -1.000000
vn 0.000000 0.000000 -1.000000
vn 0.000000 0.000000 -1.000000
vn 0.000000 0.000000 -1.000000
vn 0.000000 0.000000 -1.000000
vn 0.000000 0.000000 -1.000000
vn 0.000000 0.000000 -1.000000
vn 0.000000 0.707105 -0.707108
vn 0.000000 0.707105 -0.707108
vn 0.000000 0.707105 -0.707108
vn 0.000000 0.707105 -0.707108
vn 0.000000 0.000000 1.000000
vn 0.000000 0.000000 1.000000
vn 0.000000 0.000000 1.000000
vn 0.000000 0.000000 1.000000
vn 0.000000 0.000000 1.000000
vn 0.000000 0.000000 1.000000
vn 0.000000 0.000000 1.000000
vn 0.000000 0.000000 1.000000
vn 0.000000 -1.000000 0.000000
vn 0.000000 -1.000000 0.000000
vn 0.000000 -1.000000 0.000000
vn 0.000000 -1.000000 0.000000
vn 0.000000 1.000000 0.000000
vn 0.000000 1.000000 0.000000
vn 0.000000 1.000000 0.000000
vn 0.000000 1.000000 0.000000
vn 0.000000 -1.000000 0.000000
vn 0.000000 -1.000000 0.000000
vn 0.000000 -1.000000 0.000000
vn 0.000000 -1.000000 0.000000
vn -1.000000 0.000000 0.000000
vn -1.000000 0.000000 0.000000
vn -1.000000 0.000000 0.000000
vn -1.000000 0.000000 0.000000
vn 0.000000 1.000000 0.000000
vn 0.000000 1.000000 0.000000
vn 0.000000 1.000000 0.000000
vn 0.000000 1.000000 0.000000
vn 0.708828 0.000006 -0.705381
vn 0.708828 0.000006 -0.705381
vn 0.708828 0.000006 -0.705381
vn 0.708828 0.000006 -0.705381
vn 0.580149 0.577344 -0.574544
vn 0.580149 0.577344 -0.574544
vn 0.580149 0.577344 -0.574544
vn 0.580149 0.577344 -0.574544
vn 0.000000 -1.000000 0.000000
vn 0.000000 -1.000000 0.000000
vn 0.000000 -1.000000 0.000000
vn 0.000000 -1.000000 0.000000
vn 0.000000 -1.000000 0.000000
vn 0.000000 -1.000000 0.000000
vn 0.000000 -1.000000 0.000000
vn 0.000000 -1.000000 0.000000
s off
g tripple_road1:pCube10
usemtl tripple_road1:blinn1SG
f 1//1 18//2 10//3 2//4
f 4//5 3//6 5//7 6//8
usemtl tripple_road1:blinn2SG
f 14/1/9 15/2/10 4/3/11 6/4/12
usemtl tripple_road1:blinn1SG
f 3//13 16//14 17//15 5//16
f 6//17 5//18 1//19 2//20
f 11//21 12//22 8//23 7//24
f 5//25 17//26 18//27 1//28
f 13//29 14//30 6//31 9//32
f 6//33 2//34 7//35 8//36 9//37
f 2//38 10//39 11//40 7//41
f 9//42 8//43 12//44 13//45
f 12//46 11//47 19//48 20//49
f 13//50 12//51 20//52 21//53
f 14//54 13//55 21//56 22//57
f 26//58 28//59 27//60 25//61
f 28//62 24//63 23//64 27//65
f 23//66 29//67 30//68 31//69 27//70
f 26//71 25//72 34//73 35//74
f 35//75 34//76 32//77 33//78
f 32//79 34//80 38//81 37//82 36//83
f 40//84 29//85 23//86 39//87
f 30//88 29//89 40//90 41//91
f 42//92 31//93 30//94 41//95
f 27//96 31//97 42//98 43//99
usemtl tripple_road1:blinn2SG
f 25/5/100 27/6/101 43/7/102 44/8/103
f 25/5/104 44/8/105 45/9/106 34/10/107
usemtl tripple_road1:blinn1SG
f 34//108 45//109 46//110 38//111
f 47//112 37//113 38//114 46//115
f 37//116 47//117 48//118 36//119
f 49//120 32//121 36//122 48//123
f 50//124 33//125 32//126 49//127
f 51//128 35//129 33//130 50//131
f 52//132 26//133 35//134 51//135
f 53//136 28//137 26//138 52//139
f 54//140 24//141 28//142 53//143
f 39//144 23//145 24//146 54//147
f 40//148 39//149 59//150 60//151
f 41//152 40//153 60//154 61//155
f 42//156 41//157 61//158 62//159
f 43//160 42//161 62//162 63//163
f 39//164 54//165 58//166 59//167
f 46//168 45//169 55//170 56//171
f 47//172 46//173 56//174 57//175
f 71//176 70//177 72//178 73//179
f 73//180 72//181 74//182 75//183
f 66//184 68//185 72//186 70//187
usemtl tripple_road1:blinn2SG
f 69/11/188 67/12/189 71/13/190 73/14/191
usemtl tripple_road1:blinn1SG
f 68//192 64//193 74//194 72//195
f 64//196 65//197 75//198 74//199
usemtl tripple_road1:blinn2SG
f 65/15/200 69/11/201 73/14/202 75/16/203
usemtl tripple_road1:blinn1SG
f 22//204 21//205 56//206 55//207
f 21//208 20//209 57//210 56//211
f 76//212 77//213 83//214 89//215
f 4//216 79//217 78//218 3//219
usemtl tripple_road1:blinn2SG
f 87/17/220 79/18/221 4/3/222 15/2/223
usemtl tripple_road1:blinn1SG
f 3//224 78//225 88//226 16//227
f 79//228 77//229 76//230 78//231
f 84//232 80//233 81//234 85//235
f 78//236 76//237 89//238 88//239
f 86//240 82//241 79//242 87//243
f 79//244 82//245 81//246 80//247 77//248
f 77//249 80//250 84//251 83//252
f 82//253 86//254 85//255 81//256
f 85//257 91//258 90//259 84//260
f 86//261 92//262 91//263 85//264
f 87//265 93//266 92//267 86//268
f 97//269 96//270 98//271 99//272
f 99//273 98//274 94//275 95//276
f 94//277 98//278 102//279 101//280 100//281
f 97//282 106//283 105//284 96//285
f 106//286 104//287 103//288 105//289
f 103//290 107//291 108//292 109//293 105//294
f 111//295 110//296 94//297 100//298
f 101//299 112//300 111//301 100//302
f 113//303 112//304 101//305 102//306
f 98//307 114//308 113//309 102//310
usemtl tripple_road1:blinn2SG
f 96/19/311 115/20/312 114/21/313 98/22/314
f 96/19/315 105/23/316 116/24/317 115/20/318
usemtl tripple_road1:blinn1SG
f 105//319 109//320 117//321 116//322
f 118//323 117//324 109//325 108//326
f 108//327 107//328 119//329 118//330
f 120//331 119//332 107//333 103//334
f 121//335 120//336 103//337 104//338
f 122//339 121//340 104//341 106//342
f 123//343 122//344 106//345 97//346
f 124//347 123//348 97//349 99//350
f 125//351 124//352 99//353 95//354
f 110//355 125//356 95//357 94//358
f 111//359 60//360 59//361 110//362
f 112//363 61//364 60//365 111//366
f 113//367 62//368 61//369 112//370
f 114//371 63//372 62//373 113//374
f 110//375 59//376 58//377 125//378
f 117//379 127//380 126//381 116//382
f 118//383 128//384 127//385 117//386
f 71//387 134//388 133//389 70//390
f 134//391 136//392 135//393 133//394
f 66//395 70//396 133//397 131//398
usemtl tripple_road1:blinn2SG
f 132/25/399 134/26/400 71/13/401 67/12/402
usemtl tripple_road1:blinn1SG
f 131//403 133//404 135//405 129//406
f 129//407 135//408 136//409 130//410
usemtl tripple_road1:blinn2SG
f 130/27/411 136/28/412 134/26/413 132/25/414
usemtl tripple_road1:blinn1SG
f 93//415 126//416 127//417 92//418
f 92//419 127//420 128//421 91//422
f 58//423 54//424 137//425 138//426
f 125//427 58//428 138//429 139//430
